<?xml version="1.0" encoding="utf-8"?>
<!-- Generator: Adobe Illustrator 23.0.1, SVG Export Plug-In . SVG Version: 6.00 Build 0)  -->
<svg version="1.1" id="Layer_1" xmlns="http://www.w3.org/2000/svg" xmlns:xlink="http://www.w3.org/1999/xlink" x="0px" y="0px"
	 viewBox="0 0 745 500" style="enable-background:new 0 0 745 500;" xml:space="preserve">
<style type="text/css">
	.st0{fill:none;stroke:#94948B;stroke-width:0.5;stroke-linejoin:round;stroke-miterlimit:10;}
	.st1{fill:#FDB913;}
	.st2{fill:#94948B;}
	.st3{fill:#FFFFFF;}
	.st4{fill:none;stroke:#010101;stroke-width:2;stroke-linecap:round;stroke-linejoin:round;}
	.st5{fill:none;stroke:#010101;stroke-width:2;stroke-linecap:round;stroke-linejoin:round;stroke-dasharray:1.0076,6.0455;}
	.st6{fill:none;stroke:#010101;stroke-width:2;stroke-linecap:round;stroke-linejoin:round;stroke-dasharray:0.9839,5.9035;}
	.st7{fill:none;stroke:#010101;stroke-width:2;stroke-linecap:round;stroke-linejoin:round;stroke-dasharray:1.0007,6.0041;}
	.st8{fill:none;stroke:#010101;stroke-width:2;stroke-linecap:round;stroke-linejoin:round;stroke-dasharray:1.0034,6.0203;}
</style>
<g>
	<path d="M588.04,487.14v-0.08c0-1.42,0.92-3.3,3-5.58c1.74-1.9,2.32-2.66,2.32-4.24c0-1.26-0.38-2.5-1.92-2.5
		c-1.34,0-1.98,1.02-2.06,2.68h-1.12c0.02-1.88,0.94-3.66,3.2-3.66c2.3,0,3.06,1.62,3.06,3.46c0,1.9-0.7,2.82-2.46,4.7
		c-1.72,1.84-2.5,3.28-2.72,4.2h5.56l-0.18,1.02H588.04z"/>
	<path d="M602.81,480.38c0,4.72-0.86,6.96-3.34,6.96c-2.6,0-3.34-2.48-3.34-6.98c0-4.9,1.18-6.6,3.4-6.6
		C601.91,473.76,602.81,475.78,602.81,480.38z M597.28,480.34c0,3.96,0.46,6,2.18,6c1.7,0,2.18-1.94,2.18-5.96
		c0-4.08-0.58-5.62-2.14-5.62C597.98,474.76,597.28,476.12,597.28,480.34z"/>
	<path d="M610.43,474.92h-4.18c-0.1,1.4-0.34,3.84-0.42,4.62c0.38-0.56,1.04-1.02,2.18-1.02c2.12,0,3,1.72,3,4.1
		c0,2.5-0.78,4.7-3.36,4.7c-2.42,0-3.08-1.72-3.18-3.34h1.14c0.08,0.94,0.36,2.36,2.08,2.36c1.62,0,2.12-1.6,2.12-3.64
		c0-1.76-0.44-3.2-1.98-3.2c-1.24,0-1.8,0.74-2.12,1.76l-1.06-0.22c0.18-1.5,0.5-5.08,0.64-7.12h5.3L610.43,474.92z"/>
	<path d="M619.35,480.38c0,4.72-0.86,6.96-3.34,6.96c-2.6,0-3.34-2.48-3.34-6.98c0-4.9,1.18-6.6,3.4-6.6
		C618.45,473.76,619.35,475.78,619.35,480.38z M613.82,480.34c0,3.96,0.46,6,2.18,6c1.7,0,2.18-1.94,2.18-5.96
		c0-4.08-0.58-5.62-2.14-5.62C614.52,474.76,613.82,476.12,613.82,480.34z"/>
	<path d="M628.72,472.82c-1.36,2.02-2.54,4.58-2.54,8.42c0,3.52,0.92,6.14,2.54,8.66h-1.14c-1.2-1.76-2.5-4.66-2.5-8.68
		c0-3.96,1.38-6.72,2.5-8.4H628.72z"/>
	<path d="M630.68,473.54H634c1.92,0,3.16,1.18,3.16,3.26c0,1.86-0.9,2.64-1.72,2.92c1.06,0.34,2.18,1.32,2.18,3.44
		c0,2.4-1.4,3.98-3.74,3.98h-3.2V473.54z M633.52,479.3c1.78,0,2.5-0.82,2.5-2.4c0-1.42-0.76-2.38-2.26-2.38h-1.94v4.78H633.52z
		 M631.82,486.16h1.96c1.74,0,2.68-1.1,2.68-2.98c0-1.96-1.06-2.9-2.96-2.9h-1.68V486.16z"/>
	<path d="M645.2,485.52c0,0.68,0.04,1.36,0.08,1.62h-1.04c-0.06-0.24-0.1-0.8-0.1-1.22c-0.36,0.88-1.16,1.4-2.42,1.4
		c-1.94,0-2.62-1.5-2.62-2.88c0-1.76,1.18-3.18,3.86-3.18c0.52,0,0.82,0,1.14,0.02v-1.42c0-0.86-0.18-1.98-1.68-1.98
		c-1.68,0-1.76,1.22-1.82,1.9h-1.1c0.04-1.42,0.72-2.86,2.94-2.86c1.88,0,2.76,0.92,2.76,2.76V485.52z M644.12,482.24
		c-0.26-0.04-0.56-0.06-1.1-0.06c-1.96,0-2.78,0.96-2.78,2.18c0,1.06,0.56,1.96,1.72,1.96c1.58,0,2.16-1.08,2.16-3.44V482.24z"/>
	<path d="M648.06,484.3c0.1,1.22,0.74,2.06,1.98,2.06c1.22,0,1.8-0.78,1.8-1.8c0-1.16-0.6-1.68-1.98-2.22
		c-1.96-0.76-2.58-1.48-2.58-2.86c0-1.34,0.82-2.58,2.74-2.58c2.1,0,2.74,1.42,2.76,2.78h-1.12c-0.04-0.54-0.18-1.8-1.68-1.8
		c-1.08,0-1.56,0.66-1.56,1.56c0,0.86,0.36,1.3,1.82,1.86c1.86,0.74,2.76,1.42,2.76,3.18c0,1.78-1.12,2.84-3.04,2.84
		c-1.94,0-2.96-1.18-3.02-3.02H648.06z"/>
	<path d="M655.5,482.26c0,2.22,0.4,4.06,2.12,4.06c1.74,0,1.96-1.68,2.02-1.98h1.12c-0.02,0.24-0.32,2.98-3.14,2.98
		c-2.86,0-3.26-2.7-3.26-5.2c0-3.18,1.04-5.2,3.34-5.2c2.54,0,3.14,2.16,3.14,4.64c0,0.14,0,0.42-0.02,0.7H655.5z M659.7,481.32
		c0-2.02-0.46-3.42-2.02-3.42c-2.02,0-2.12,2.74-2.16,3.42H659.7z"/>
	<path d="M662.78,487.14v-14.26h1.12v14.26H662.78z"/>
	<path d="M666.42,474.88v-2h1.12v2H666.42z M666.42,477.08h1.12v10.06h-1.12V477.08z"/>
	<path d="M670.06,480.18c0-2.06-0.02-2.66-0.02-3.1h1.08c0.02,0.24,0.06,0.62,0.06,1.42c0.34-0.88,1.06-1.6,2.44-1.6
		c1.38,0,2.58,0.76,2.58,3.08v7.16h-1.14v-6.98c0-1.3-0.46-2.22-1.7-2.22c-1.54,0-2.16,1.04-2.16,3.3v5.9h-1.14V480.18z"/>
	<path d="M679.34,482.26c0,2.22,0.4,4.06,2.12,4.06c1.74,0,1.96-1.68,2.02-1.98h1.12c-0.02,0.24-0.32,2.98-3.14,2.98
		c-2.86,0-3.26-2.7-3.26-5.2c0-3.18,1.04-5.2,3.34-5.2c2.54,0,3.14,2.16,3.14,4.64c0,0.14,0,0.42-0.02,0.7H679.34z M683.54,481.32
		c0-2.02-0.46-3.42-2.02-3.42c-2.02,0-2.12,2.74-2.16,3.42H683.54z"/>
	<path d="M685.92,489.9c1.36-2.02,2.54-4.58,2.54-8.42c0-3.5-0.92-6.14-2.54-8.66h1.14c1.22,1.76,2.52,4.66,2.52,8.68
		c0,3.96-1.38,6.72-2.52,8.4H685.92z"/>
</g>
<g>
	<path d="M170.16,487.14v-0.08c0-1.42,0.92-3.3,3-5.58c1.74-1.9,2.32-2.66,2.32-4.24c0-1.26-0.38-2.5-1.92-2.5
		c-1.34,0-1.98,1.02-2.06,2.68h-1.12c0.02-1.88,0.94-3.66,3.2-3.66c2.3,0,3.06,1.62,3.06,3.46c0,1.9-0.7,2.82-2.46,4.7
		c-1.72,1.84-2.5,3.28-2.72,4.2h5.56l-0.18,1.02H170.16z"/>
	<path d="M184.92,480.38c0,4.72-0.86,6.96-3.34,6.96c-2.6,0-3.34-2.48-3.34-6.98c0-4.9,1.18-6.6,3.4-6.6
		C184.02,473.76,184.92,475.78,184.92,480.38z M179.4,480.34c0,3.96,0.46,6,2.18,6c1.7,0,2.18-1.94,2.18-5.96
		c0-4.08-0.58-5.62-2.14-5.62C180.1,474.76,179.4,476.12,179.4,480.34z"/>
	<path d="M188,487.14V475.3c-0.42,0.32-1.52,0.7-2.02,0.76v-0.94c0.92-0.26,1.94-0.82,2.36-1.24h0.78v13.26H188z"/>
	<path d="M198.3,480.38c0,4.72-0.86,6.96-3.34,6.96c-2.6,0-3.34-2.48-3.34-6.98c0-4.9,1.18-6.6,3.4-6.6
		C197.4,473.76,198.3,475.78,198.3,480.38z M192.78,480.34c0,3.96,0.46,6,2.18,6c1.7,0,2.18-1.94,2.18-5.96
		c0-4.08-0.58-5.62-2.14-5.62C193.48,474.76,192.78,476.12,192.78,480.34z"/>
	<path d="M207.68,472.82c-1.36,2.02-2.54,4.58-2.54,8.42c0,3.52,0.92,6.14,2.54,8.66h-1.14c-1.2-1.76-2.5-4.66-2.5-8.68
		c0-3.96,1.38-6.72,2.5-8.4H207.68z"/>
	<path d="M209.64,473.54h3.32c1.92,0,3.16,1.18,3.16,3.26c0,1.86-0.9,2.64-1.72,2.92c1.06,0.34,2.18,1.32,2.18,3.44
		c0,2.4-1.4,3.98-3.74,3.98h-3.2V473.54z M212.48,479.3c1.78,0,2.5-0.82,2.5-2.4c0-1.42-0.76-2.38-2.26-2.38h-1.94v4.78H212.48z
		 M210.78,486.16h1.96c1.74,0,2.68-1.1,2.68-2.98c0-1.96-1.06-2.9-2.96-2.9h-1.68V486.16z"/>
	<path d="M224.16,485.52c0,0.68,0.04,1.36,0.08,1.62h-1.04c-0.06-0.24-0.1-0.8-0.1-1.22c-0.36,0.88-1.16,1.4-2.42,1.4
		c-1.94,0-2.62-1.5-2.62-2.88c0-1.76,1.18-3.18,3.86-3.18c0.52,0,0.82,0,1.14,0.02v-1.42c0-0.86-0.18-1.98-1.68-1.98
		c-1.68,0-1.76,1.22-1.82,1.9h-1.1c0.04-1.42,0.72-2.86,2.94-2.86c1.88,0,2.76,0.92,2.76,2.76V485.52z M223.08,482.24
		c-0.26-0.04-0.56-0.06-1.1-0.06c-1.96,0-2.78,0.96-2.78,2.18c0,1.06,0.56,1.96,1.72,1.96c1.58,0,2.16-1.08,2.16-3.44V482.24z"/>
	<path d="M227.02,484.3c0.1,1.22,0.74,2.06,1.98,2.06c1.22,0,1.8-0.78,1.8-1.8c0-1.16-0.6-1.68-1.98-2.22
		c-1.96-0.76-2.58-1.48-2.58-2.86c0-1.34,0.82-2.58,2.74-2.58c2.1,0,2.74,1.42,2.76,2.78h-1.12c-0.04-0.54-0.18-1.8-1.68-1.8
		c-1.08,0-1.56,0.66-1.56,1.56c0,0.86,0.36,1.3,1.82,1.86c1.86,0.74,2.76,1.42,2.76,3.18c0,1.78-1.12,2.84-3.04,2.84
		c-1.94,0-2.96-1.18-3.02-3.02H227.02z"/>
	<path d="M234.45,482.26c0,2.22,0.4,4.06,2.12,4.06c1.74,0,1.96-1.68,2.02-1.98h1.12c-0.02,0.24-0.32,2.98-3.14,2.98
		c-2.86,0-3.26-2.7-3.26-5.2c0-3.18,1.04-5.2,3.34-5.2c2.54,0,3.14,2.16,3.14,4.64c0,0.14,0,0.42-0.02,0.7H234.45z M238.66,481.32
		c0-2.02-0.46-3.42-2.02-3.42c-2.02,0-2.12,2.74-2.16,3.42H238.66z"/>
	<path d="M245.79,477.08c1.22,4.58,2.1,7.7,2.24,8.72h0.02c0.18-1.06,1.18-4.7,2.24-8.72h1.18l-2.96,10.58
		c-0.8,2.88-1.44,3.36-2.88,3.36c-0.2,0-0.48-0.02-0.66-0.06v-1.04c0.14,0.04,0.42,0.06,0.64,0.06c1.12,0,1.42-0.82,1.86-2.6
		l-2.92-10.3H245.79z"/>
	<path d="M253.57,482.26c0,2.22,0.4,4.06,2.12,4.06c1.74,0,1.96-1.68,2.02-1.98h1.12c-0.02,0.24-0.32,2.98-3.14,2.98
		c-2.86,0-3.26-2.7-3.26-5.2c0-3.18,1.04-5.2,3.34-5.2c2.54,0,3.14,2.16,3.14,4.64c0,0.14,0,0.42-0.02,0.7H253.57z M257.77,481.32
		c0-2.02-0.46-3.42-2.02-3.42c-2.02,0-2.12,2.74-2.16,3.42H257.77z"/>
	<path d="M266.42,485.52c0,0.68,0.04,1.36,0.08,1.62h-1.04c-0.06-0.24-0.1-0.8-0.1-1.22c-0.36,0.88-1.16,1.4-2.42,1.4
		c-1.94,0-2.62-1.5-2.62-2.88c0-1.76,1.18-3.18,3.86-3.18c0.52,0,0.82,0,1.14,0.02v-1.42c0-0.86-0.18-1.98-1.68-1.98
		c-1.68,0-1.76,1.22-1.82,1.9h-1.1c0.04-1.42,0.72-2.86,2.94-2.86c1.88,0,2.76,0.92,2.76,2.76V485.52z M265.33,482.24
		c-0.26-0.04-0.56-0.06-1.1-0.06c-1.96,0-2.78,0.96-2.78,2.18c0,1.06,0.56,1.96,1.72,1.96c1.58,0,2.16-1.08,2.16-3.44V482.24z"/>
	<path d="M268.93,480.52c0-1.6,0-2.72-0.02-3.44h1.08c0.02,0.3,0.04,0.78,0.04,1.84c0.46-1.24,1.46-1.98,2.68-2v1.24
		c-1.78,0.08-2.66,1.4-2.66,3.24v5.74h-1.12V480.52z"/>
	<path d="M273.45,489.9c1.36-2.02,2.54-4.58,2.54-8.42c0-3.5-0.92-6.14-2.54-8.66h1.14c1.22,1.76,2.52,4.66,2.52,8.68
		c0,3.96-1.38,6.72-2.52,8.4H273.45z"/>
</g>
<g>
	<g>
		<g>
			<path d="M90.48,459.83c0,4.25-0.77,6.27-3.01,6.27c-2.34,0-3.01-2.23-3.01-6.28c0-4.41,1.06-5.94,3.06-5.94
				C89.67,453.87,90.48,455.69,90.48,459.83z M85.51,459.8c0,3.57,0.41,5.4,1.96,5.4c1.53,0,1.96-1.75,1.96-5.37
				c0-3.67-0.52-5.06-1.93-5.06C86.14,454.77,85.51,456,85.51,459.8z"/>
		</g>
		<g>
			<path d="M64.8,367.03h-3.76c-0.09,1.26-0.31,3.46-0.38,4.16c0.34-0.5,0.94-0.92,1.96-0.92c1.91,0,2.7,1.55,2.7,3.69
				c0,2.25-0.7,4.23-3.02,4.23c-2.18,0-2.77-1.55-2.86-3.01h1.03c0.07,0.85,0.32,2.12,1.87,2.12c1.46,0,1.91-1.44,1.91-3.28
				c0-1.58-0.4-2.88-1.78-2.88c-1.12,0-1.62,0.67-1.91,1.58l-0.95-0.2c0.16-1.35,0.45-4.57,0.58-6.41h4.77L64.8,367.03z"/>
			<path d="M66.02,380.13c0.54-1.3,0.88-2.81,0.97-4.23h0.99c-0.11,1.66-0.59,3.33-1.1,4.23H66.02z"/>
			<path d="M75.22,371.94c0,4.25-0.77,6.27-3.01,6.27c-2.34,0-3.01-2.23-3.01-6.28c0-4.41,1.06-5.94,3.06-5.94
				C74.41,365.98,75.22,367.8,75.22,371.94z M70.25,371.91c0,3.57,0.41,5.4,1.96,5.4c1.53,0,1.96-1.75,1.96-5.37
				c0-3.67-0.52-5.06-1.93-5.06C70.88,366.88,70.25,368.11,70.25,371.91z"/>
			<path d="M82.85,371.94c0,4.25-0.77,6.27-3.01,6.27c-2.34,0-3.01-2.23-3.01-6.28c0-4.41,1.06-5.94,3.06-5.94
				C82.04,365.98,82.85,367.8,82.85,371.94z M77.88,371.91c0,3.57,0.41,5.4,1.96,5.4c1.53,0,1.96-1.75,1.96-5.37
				c0-3.67-0.52-5.06-1.93-5.06C78.51,366.88,77.88,368.11,77.88,371.91z"/>
			<path d="M90.48,371.94c0,4.25-0.77,6.27-3.01,6.27c-2.34,0-3.01-2.23-3.01-6.28c0-4.41,1.06-5.94,3.06-5.94
				C89.67,365.98,90.48,367.8,90.48,371.94z M85.51,371.91c0,3.57,0.41,5.4,1.96,5.4c1.53,0,1.96-1.75,1.96-5.37
				c0-3.67-0.52-5.06-1.93-5.06C86.14,366.88,85.51,368.11,85.51,371.91z"/>
		</g>
		<g>
			<path d="M55.92,290.14v-10.66c-0.38,0.29-1.37,0.63-1.82,0.68v-0.85c0.83-0.23,1.75-0.74,2.12-1.12h0.7v11.94H55.92z"/>
			<path d="M65.19,284.05c0,4.25-0.77,6.27-3.01,6.27c-2.34,0-3.01-2.23-3.01-6.28c0-4.41,1.06-5.94,3.06-5.94
				C64.38,278.09,65.19,279.91,65.19,284.05z M60.22,284.01c0,3.57,0.41,5.4,1.96,5.4c1.53,0,1.96-1.75,1.96-5.37
				c0-3.67-0.52-5.06-1.93-5.06C60.85,278.99,60.22,280.22,60.22,284.01z"/>
			<path d="M66.02,292.24c0.54-1.3,0.88-2.81,0.97-4.23h0.99c-0.11,1.66-0.59,3.33-1.1,4.23H66.02z"/>
			<path d="M75.22,284.05c0,4.25-0.77,6.27-3.01,6.27c-2.34,0-3.01-2.23-3.01-6.28c0-4.41,1.06-5.94,3.06-5.94
				C74.41,278.09,75.22,279.91,75.22,284.05z M70.25,284.01c0,3.57,0.41,5.4,1.96,5.4c1.53,0,1.96-1.75,1.96-5.37
				c0-3.67-0.52-5.06-1.93-5.06C70.88,278.99,70.25,280.22,70.25,284.01z"/>
			<path d="M82.85,284.05c0,4.25-0.77,6.27-3.01,6.27c-2.34,0-3.01-2.23-3.01-6.28c0-4.41,1.06-5.94,3.06-5.94
				C82.04,278.09,82.85,279.91,82.85,284.05z M77.88,284.01c0,3.57,0.41,5.4,1.96,5.4c1.53,0,1.96-1.75,1.96-5.37
				c0-3.67-0.52-5.06-1.93-5.06C78.51,278.99,77.88,280.22,77.88,284.01z"/>
			<path d="M90.48,284.05c0,4.25-0.77,6.27-3.01,6.27c-2.34,0-3.01-2.23-3.01-6.28c0-4.41,1.06-5.94,3.06-5.94
				C89.67,278.09,90.48,279.91,90.48,284.05z M85.51,284.01c0,3.57,0.41,5.4,1.96,5.4c1.53,0,1.96-1.75,1.96-5.37
				c0-3.67-0.52-5.06-1.93-5.06C86.14,278.99,85.51,280.22,85.51,284.01z"/>
		</g>
		<g>
			<path d="M56.3,202.24v-10.66c-0.38,0.29-1.37,0.63-1.82,0.68v-0.85c0.83-0.23,1.75-0.74,2.12-1.12h0.7v11.94H56.3z"/>
			<path d="M64.8,191.24h-3.76c-0.09,1.26-0.31,3.46-0.38,4.16c0.34-0.5,0.94-0.92,1.96-0.92c1.91,0,2.7,1.55,2.7,3.69
				c0,2.25-0.7,4.23-3.02,4.23c-2.18,0-2.77-1.55-2.86-3.01h1.03c0.07,0.85,0.32,2.12,1.87,2.12c1.46,0,1.91-1.44,1.91-3.28
				c0-1.58-0.4-2.88-1.78-2.88c-1.12,0-1.62,0.67-1.91,1.58l-0.95-0.2c0.16-1.35,0.45-4.57,0.58-6.41h4.77L64.8,191.24z"/>
			<path d="M66.02,204.35c0.54-1.3,0.88-2.81,0.97-4.23h0.99c-0.11,1.66-0.59,3.33-1.1,4.23H66.02z"/>
			<path d="M75.22,196.16c0,4.25-0.77,6.27-3.01,6.27c-2.34,0-3.01-2.23-3.01-6.28c0-4.41,1.06-5.94,3.06-5.94
				C74.41,190.2,75.22,192.02,75.22,196.16z M70.25,196.12c0,3.57,0.41,5.4,1.96,5.4c1.53,0,1.96-1.75,1.96-5.37
				c0-3.67-0.52-5.06-1.93-5.06C70.88,191.1,70.25,192.32,70.25,196.12z"/>
			<path d="M82.85,196.16c0,4.25-0.77,6.27-3.01,6.27c-2.34,0-3.01-2.23-3.01-6.28c0-4.41,1.06-5.94,3.06-5.94
				C82.04,190.2,82.85,192.02,82.85,196.16z M77.88,196.12c0,3.57,0.41,5.4,1.96,5.4c1.53,0,1.96-1.75,1.96-5.37
				c0-3.67-0.52-5.06-1.93-5.06C78.51,191.1,77.88,192.32,77.88,196.12z"/>
			<path d="M90.48,196.16c0,4.25-0.77,6.27-3.01,6.27c-2.34,0-3.01-2.23-3.01-6.28c0-4.41,1.06-5.94,3.06-5.94
				C89.67,190.2,90.48,192.02,90.48,196.16z M85.51,196.12c0,3.57,0.41,5.4,1.96,5.4c1.53,0,1.96-1.75,1.96-5.37
				c0-3.67-0.52-5.06-1.93-5.06C86.14,191.1,85.51,192.32,85.51,196.12z"/>
		</g>
		<g>
			<path d="M51.91,114.35v-0.07c0-1.28,0.83-2.97,2.7-5.02c1.57-1.71,2.09-2.39,2.09-3.82c0-1.13-0.34-2.25-1.73-2.25
				c-1.21,0-1.78,0.92-1.85,2.41h-1.01c0.02-1.69,0.85-3.29,2.88-3.29c2.07,0,2.75,1.46,2.75,3.12c0,1.71-0.63,2.54-2.21,4.23
				c-1.55,1.66-2.25,2.95-2.45,3.78h5.01l-0.16,0.92H51.91z"/>
			<path d="M65.19,108.27c0,4.25-0.77,6.27-3.01,6.27c-2.34,0-3.01-2.23-3.01-6.28c0-4.41,1.06-5.94,3.06-5.94
				C64.38,102.31,65.19,104.13,65.19,108.27z M60.22,108.23c0,3.57,0.41,5.4,1.96,5.4c1.53,0,1.96-1.75,1.96-5.37
				c0-3.67-0.52-5.06-1.93-5.06C60.85,103.21,60.22,104.43,60.22,108.23z"/>
			<path d="M66.02,116.46c0.54-1.3,0.88-2.81,0.97-4.23h0.99c-0.11,1.66-0.59,3.33-1.1,4.23H66.02z"/>
			<path d="M75.22,108.27c0,4.25-0.77,6.27-3.01,6.27c-2.34,0-3.01-2.23-3.01-6.28c0-4.41,1.06-5.94,3.06-5.94
				C74.41,102.31,75.22,104.13,75.22,108.27z M70.25,108.23c0,3.57,0.41,5.4,1.96,5.4c1.53,0,1.96-1.75,1.96-5.37
				c0-3.67-0.52-5.06-1.93-5.06C70.88,103.21,70.25,104.43,70.25,108.23z"/>
			<path d="M82.85,108.27c0,4.25-0.77,6.27-3.01,6.27c-2.34,0-3.01-2.23-3.01-6.28c0-4.41,1.06-5.94,3.06-5.94
				C82.04,102.31,82.85,104.13,82.85,108.27z M77.88,108.23c0,3.57,0.41,5.4,1.96,5.4c1.53,0,1.96-1.75,1.96-5.37
				c0-3.67-0.52-5.06-1.93-5.06C78.51,103.21,77.88,104.43,77.88,108.23z"/>
			<path d="M90.48,108.27c0,4.25-0.77,6.27-3.01,6.27c-2.34,0-3.01-2.23-3.01-6.28c0-4.41,1.06-5.94,3.06-5.94
				C89.67,102.31,90.48,104.13,90.48,108.27z M85.51,108.23c0,3.57,0.41,5.4,1.96,5.4c1.53,0,1.96-1.75,1.96-5.37
				c0-3.67-0.52-5.06-1.93-5.06C86.14,103.21,85.51,104.43,85.51,108.23z"/>
		</g>
		<g>
			<path d="M52.29,26.46v-0.07c0-1.28,0.83-2.97,2.7-5.02c1.57-1.71,2.09-2.39,2.09-3.82c0-1.13-0.34-2.25-1.73-2.25
				c-1.21,0-1.78,0.92-1.85,2.41h-1.01c0.02-1.69,0.85-3.29,2.88-3.29c2.07,0,2.75,1.46,2.75,3.11c0,1.71-0.63,2.54-2.21,4.23
				c-1.55,1.66-2.25,2.95-2.45,3.78h5.01l-0.16,0.92H52.29z"/>
			<path d="M64.8,15.46h-3.76c-0.09,1.26-0.31,3.46-0.38,4.16c0.34-0.5,0.94-0.92,1.96-0.92c1.91,0,2.7,1.55,2.7,3.69
				c0,2.25-0.7,4.23-3.02,4.23c-2.18,0-2.77-1.55-2.86-3.01h1.03c0.07,0.85,0.32,2.12,1.87,2.12c1.46,0,1.91-1.44,1.91-3.28
				c0-1.58-0.4-2.88-1.78-2.88c-1.12,0-1.62,0.67-1.91,1.58l-0.95-0.2c0.16-1.35,0.45-4.57,0.58-6.41h4.77L64.8,15.46z"/>
			<path d="M66.02,28.57c0.54-1.3,0.88-2.81,0.97-4.23h0.99c-0.11,1.66-0.59,3.33-1.1,4.23H66.02z"/>
			<path d="M75.22,20.37c0,4.25-0.77,6.27-3.01,6.27c-2.34,0-3.01-2.23-3.01-6.28c0-4.41,1.06-5.94,3.06-5.94
				C74.41,14.41,75.22,16.23,75.22,20.37z M70.25,20.34c0,3.57,0.41,5.4,1.96,5.4c1.53,0,1.96-1.75,1.96-5.37
				c0-3.67-0.52-5.06-1.93-5.06C70.88,15.31,70.25,16.54,70.25,20.34z"/>
			<path d="M82.85,20.37c0,4.25-0.77,6.27-3.01,6.27c-2.34,0-3.01-2.23-3.01-6.28c0-4.41,1.06-5.94,3.06-5.94
				C82.04,14.41,82.85,16.23,82.85,20.37z M77.88,20.34c0,3.57,0.41,5.4,1.96,5.4c1.53,0,1.96-1.75,1.96-5.37
				c0-3.67-0.52-5.06-1.93-5.06C78.51,15.31,77.88,16.54,77.88,20.34z"/>
			<path d="M90.48,20.37c0,4.25-0.77,6.27-3.01,6.27c-2.34,0-3.01-2.23-3.01-6.28c0-4.41,1.06-5.94,3.06-5.94
				C89.67,14.41,90.48,16.23,90.48,20.37z M85.51,20.34c0,3.57,0.41,5.4,1.96,5.4c1.53,0,1.96-1.75,1.96-5.37
				c0-3.67-0.52-5.06-1.93-5.06C86.14,15.31,85.51,16.54,85.51,20.34z"/>
		</g>
	</g>
</g>
<g>
	<g>
		<line class="st0" x1="99.29" y1="460.69" x2="739.39" y2="460.69"/>
		<line class="st0" x1="99.29" y1="372.8" x2="739.39" y2="372.8"/>
		<line class="st0" x1="99.29" y1="284.9" x2="739.39" y2="284.9"/>
		<line class="st0" x1="99.29" y1="197.01" x2="739.39" y2="197.01"/>
		<line class="st0" x1="99.29" y1="109.12" x2="739.39" y2="109.12"/>
		<line class="st0" x1="99.29" y1="21.23" x2="739.39" y2="21.23"/>
	</g>
</g>
<g>
	<g>
		<rect x="579.55" y="100.33" class="st1" width="115.47" height="360.36"/>
	</g>
</g>
<g>
	<g>
		<rect x="164.76" y="230.41" class="st2" width="115.47" height="230.28"/>
	</g>
</g>
<g>
	<rect x="372.66" y="100.83" class="st3" width="114.47" height="129.08"/>
	<path class="st1" d="M486.63,101.33v128.08H373.16V101.33H486.63 M487.63,100.33H372.16v130.08h115.47V100.33L487.63,100.33z"/>
</g>
<g>
	<g>
		<line class="st4" x1="165.41" y1="230.41" x2="165.91" y2="230.41"/>
		<line class="st7" x1="171.91" y1="230.41" x2="484.13" y2="230.41"/>
		<line class="st4" x1="487.13" y1="230.41" x2="487.63" y2="230.41"/>
	</g>
</g>
<g>
	<g>
		<line class="st4" x1="371.93" y1="100.05" x2="372.43" y2="100.05"/>
		<line class="st8" x1="378.45" y1="100.05" x2="691.51" y2="100.05"/>
		<line class="st4" x1="694.52" y1="100.05" x2="695.02" y2="100.05"/>
	</g>
</g>
<g>
	<path d="M601.99,266.91v-0.21c0.03-3.36,1.44-5.69,4.44-9.08c2.28-2.58,2.82-3.3,2.82-5.27c0-1.5-0.33-2.52-1.77-2.52
		c-1.53,0-1.92,1.23-1.98,3.21h-3.48c0.03-3.09,1.38-6.08,5.54-6.08c3.81,0,5.33,2.25,5.33,5.51c0,2.34-0.57,3.6-3.12,6.29
		c-1.83,1.95-3.24,3.72-3.66,5.09h7.28l-0.45,3.06H601.99z"/>
	<path d="M626.42,256.87c0,7.61-1.71,10.31-5.78,10.31c-4.04,0-5.75-2.88-5.75-10.31c0-7.97,2.43-9.92,5.84-9.92
		C624.35,246.95,626.42,249.17,626.42,256.87z M618.47,256.75c0,4.92,0.24,7.46,2.19,7.46c1.92,0,2.16-2.43,2.16-7.4
		c0-5.15-0.27-6.86-2.16-6.86C618.89,249.95,618.47,251.9,618.47,256.75z"/>
	<path d="M627.04,270.09c1.05-2.94,1.68-6.11,1.77-7.76h3.39c-0.27,2.85-1.26,5.93-2.34,7.76H627.04z"/>
	<path d="M644.49,250.28h-6.11c-0.09,1.26-0.36,3.45-0.45,4.35c0.54-0.57,1.44-0.93,2.82-0.93c3.27,0,4.83,2.55,4.83,6.11
		c0,4.05-1.29,7.37-5.96,7.37c-3.75,0-5.42-2.28-5.51-5.48h3.54c0.09,1.29,0.48,2.64,2.07,2.64c1.89,0,2.22-1.74,2.22-4.05
		c0-2.4-0.42-3.72-2.19-3.72c-1.35,0-1.8,0.93-2.13,2.01l-3.27-0.45c0.36-2.4,0.93-8.27,1.11-10.94h9.44L644.49,250.28z"/>
	<path d="M659.29,256.87c0,7.61-1.71,10.31-5.78,10.31c-4.04,0-5.75-2.88-5.75-10.31c0-7.97,2.43-9.92,5.84-9.92
		C657.22,246.95,659.29,249.17,659.29,256.87z M651.35,256.75c0,4.92,0.24,7.46,2.19,7.46c1.92,0,2.16-2.43,2.16-7.4
		c0-5.15-0.27-6.86-2.16-6.86C651.77,249.95,651.35,251.9,651.35,256.75z"/>
	<path d="M673.07,256.87c0,7.61-1.71,10.31-5.78,10.31c-4.04,0-5.75-2.88-5.75-10.31c0-7.97,2.43-9.92,5.84-9.92
		C671.01,246.95,673.07,249.17,673.07,256.87z M665.13,256.75c0,4.92,0.24,7.46,2.19,7.46c1.92,0,2.16-2.43,2.16-7.4
		c0-5.15-0.27-6.86-2.16-6.86C665.55,249.95,665.13,251.9,665.13,256.75z"/>
	<path d="M604.77,278.69h-3.85v-1.3h9.12v1.3h-3.85v15.69h-1.42V278.69z"/>
	<path d="M613.36,286.34v8.04h-1.45V277.4h4.17c2.75,0,4.15,1.62,4.15,4.3c0,2.57-1.2,3.65-2.3,4c1.67,0.55,2.12,2.05,2.12,4.37
		v0.67c0,1.45,0.03,2.72,0.25,3.65h-1.47c-0.23-0.77-0.23-2.35-0.23-3.7v-0.55c0-2.47-0.47-3.8-2.92-3.8H613.36z M613.36,285.09
		h2.42c2.17,0,2.97-1.32,2.97-3.37c0-1.8-0.82-3.07-2.82-3.07h-2.57V285.09z"/>
	<path d="M624.55,277.4v16.99h-1.45V277.4H624.55z"/>
	<path d="M628.05,277.4h1.45v15.69h6.14l-0.25,1.3h-7.34V277.4z"/>
	<path d="M637.46,277.4h1.45v15.69h6.14l-0.25,1.3h-7.34V277.4z"/>
	<path d="M648.32,277.4v16.99h-1.45V277.4H648.32z"/>
	<path d="M660.79,285.74c0,5.62-1.27,8.87-4.87,8.87c-3.45,0-4.77-3.1-4.77-8.82c0-5.67,1.57-8.64,4.85-8.64
		C659.44,277.15,660.79,280.02,660.79,285.74z M652.64,285.74c0,5.15,1.1,7.59,3.32,7.59c2.3,0,3.32-2.42,3.32-7.54
		c0-5.32-1.12-7.34-3.35-7.34C653.79,278.44,652.64,280.79,652.64,285.74z"/>
	<path d="M663.61,294.38V277.4h1.87c5.15,12.64,5.79,14.16,6.02,14.86h0.03c-0.12-2.37-0.15-4.95-0.15-7.69v-7.17h1.37v16.99h-1.77
		c-5.35-13.21-5.92-14.69-6.09-15.31h-0.03c0.12,2.12,0.12,5.02,0.12,8.07v7.24H663.61z"/>
	<path d="M608.07,317.23c-0.08,1.05-0.52,4.85-4.45,4.85c-4.4,0-4.67-4.97-4.67-8.87c0-4.75,1.2-8.59,4.9-8.59
		c3.95,0,4.12,3.85,4.17,4.75h-1.47c-0.03-0.57-0.15-3.4-2.72-3.4c-2.97,0-3.35,4.12-3.35,7.22c0,3.72,0.42,7.59,3.2,7.59
		c2.45,0,2.85-2.6,2.92-3.55H608.07z"/>
	<path d="M612.22,316.06l-1.37,5.79h-1.42l4.15-16.99h1.87l4.32,16.99h-1.55l-1.4-5.79H612.22z M616.49,314.76
		c-1.12-4.52-1.8-7.27-2.02-8.52h-0.05c-0.23,1.45-0.97,4.67-1.9,8.52H616.49z"/>
	<path d="M621.78,304.87h1.45v15.69h6.14l-0.25,1.3h-7.34V304.87z"/>
	<path d="M639.71,313.21c0,5.62-1.27,8.87-4.87,8.87c-3.45,0-4.77-3.1-4.77-8.82c0-5.67,1.57-8.64,4.85-8.64
		C638.36,304.62,639.71,307.49,639.71,313.21z M631.57,313.21c0,5.15,1.1,7.59,3.32,7.59c2.3,0,3.32-2.42,3.32-7.54
		c0-5.32-1.12-7.34-3.35-7.34C632.72,305.91,631.57,308.26,631.57,313.21z"/>
	<path d="M643.98,313.81v8.04h-1.45v-16.99h4.17c2.75,0,4.15,1.62,4.15,4.3c0,2.57-1.2,3.65-2.3,4c1.67,0.55,2.12,2.05,2.12,4.37
		v0.67c0,1.45,0.03,2.72,0.25,3.65h-1.47c-0.23-0.77-0.23-2.35-0.23-3.7v-0.55c0-2.47-0.47-3.8-2.92-3.8H643.98z M643.98,312.56
		h2.42c2.17,0,2.97-1.32,2.97-3.37c0-1.8-0.82-3.07-2.82-3.07h-2.57V312.56z"/>
	<path d="M655.17,304.87v16.99h-1.45v-16.99H655.17z"/>
	<path d="M665.83,313.48h-5.75v7.07h6.37l-0.2,1.3h-7.59v-16.99h7.47v1.3h-6.04v6.02h5.75V313.48z"/>
	<path d="M669.37,317.5c0.12,1.85,1.07,3.32,3.05,3.32c1.87,0,2.9-1,2.9-3.2c0-1.95-0.72-2.95-3.1-4.1
		c-2.57-1.22-3.77-2.4-3.77-4.82c0-2.2,1.4-4.07,4.07-4.07c3.07,0,3.95,2.27,4,4.2h-1.42c-0.08-0.77-0.33-2.95-2.65-2.95
		c-1.8,0-2.55,1.25-2.55,2.7c0,1.77,0.8,2.6,2.97,3.65c2.95,1.42,3.92,2.85,3.92,5.27c0,2.7-1.45,4.57-4.42,4.57
		c-3.22,0-4.3-2.15-4.45-4.57H669.37z"/>
</g>
<g>
	<path class="st3" d="M193.28,330.57v-15.61c-0.48,0.06-1.59,0.09-2.16,0.03v-2.7c1.41-0.21,2.73-0.87,3.36-1.5h2.37v19.78H193.28z"
		/>
	<path class="st3" d="M199.75,316.18c0-2.58,1.14-5.57,5.36-5.57c3.54,0,5.12,2.01,5.12,5.06c0,2.43-1.05,3.63-2.37,4.11v0.06
		c1.62,0.54,2.97,1.83,2.97,4.74c0,3.39-1.32,6.26-5.84,6.26c-3.75,0-5.42-2.19-5.51-5.42h3.45c0.09,1.35,0.57,2.61,2.16,2.61
		c1.65,0,2.16-1.26,2.16-3.36c0-2.25-0.72-3.15-3.03-3.15h-0.9v-2.94h0.81c1.86,0,2.58-0.57,2.58-2.67c0-1.47-0.33-2.43-1.8-2.43
		c-1.56,0-1.83,1.5-1.89,2.7H199.75z"/>
	<path class="st3" d="M211.62,333.74c1.05-2.94,1.68-6.11,1.77-7.76h3.39c-0.27,2.85-1.26,5.93-2.34,7.76H211.62z"/>
	<path class="st3" d="M219.32,330.57v-15.61c-0.48,0.06-1.59,0.09-2.16,0.03v-2.7c1.41-0.21,2.73-0.87,3.36-1.5h2.37v19.78H219.32z"
		/>
	<path class="st3" d="M237.42,320.53c0,7.61-1.71,10.31-5.78,10.31c-4.05,0-5.75-2.88-5.75-10.31c0-7.97,2.43-9.92,5.84-9.92
		C235.35,310.61,237.42,312.83,237.42,320.53z M229.48,320.41c0,4.92,0.24,7.46,2.19,7.46c1.92,0,2.16-2.43,2.16-7.4
		c0-5.15-0.27-6.86-2.16-6.86C229.9,313.6,229.48,315.55,229.48,320.41z"/>
	<path class="st3" d="M251.2,320.53c0,7.61-1.71,10.31-5.78,10.31c-4.05,0-5.75-2.88-5.75-10.31c0-7.97,2.43-9.92,5.84-9.92
		C249.14,310.61,251.2,312.83,251.2,320.53z M243.26,320.41c0,4.92,0.24,7.46,2.19,7.46c1.92,0,2.16-2.43,2.16-7.4
		c0-5.15-0.27-6.86-2.16-6.86C243.68,313.6,243.26,315.55,243.26,320.41z"/>
	<path class="st3" d="M188.42,342.35h-3.85v-1.3h9.12v1.3h-3.85v15.69h-1.42V342.35z"/>
	<path class="st3" d="M197.01,349.99v8.04h-1.45v-16.99h4.17c2.75,0,4.15,1.62,4.15,4.3c0,2.57-1.2,3.65-2.3,4
		c1.67,0.55,2.12,2.05,2.12,4.37v0.67c0,1.45,0.02,2.72,0.25,3.65h-1.47c-0.22-0.77-0.22-2.35-0.22-3.7v-0.55
		c0-2.47-0.47-3.8-2.92-3.8H197.01z M197.01,348.74h2.42c2.17,0,2.97-1.32,2.97-3.37c0-1.8-0.82-3.07-2.82-3.07h-2.57V348.74z"/>
	<path class="st3" d="M208.2,341.05v16.99h-1.45v-16.99H208.2z"/>
	<path class="st3" d="M211.69,341.05h1.45v15.69h6.14l-0.25,1.3h-7.34V341.05z"/>
	<path class="st3" d="M221.11,341.05h1.45v15.69h6.14l-0.25,1.3h-7.34V341.05z"/>
	<path class="st3" d="M231.97,341.05v16.99h-1.45v-16.99H231.97z"/>
	<path class="st3" d="M244.43,349.39c0,5.62-1.27,8.87-4.87,8.87c-3.45,0-4.77-3.1-4.77-8.82c0-5.67,1.57-8.64,4.85-8.64
		C243.08,340.8,244.43,343.67,244.43,349.39z M236.29,349.39c0,5.15,1.1,7.59,3.32,7.59c2.3,0,3.32-2.42,3.32-7.54
		c0-5.32-1.12-7.34-3.35-7.34C237.44,342.1,236.29,344.45,236.29,349.39z"/>
	<path class="st3" d="M247.25,358.04v-16.99h1.87c5.15,12.64,5.79,14.16,6.02,14.86h0.02c-0.12-2.37-0.15-4.95-0.15-7.69v-7.17h1.37
		v16.99h-1.77c-5.35-13.21-5.92-14.69-6.09-15.31h-0.02c0.12,2.12,0.12,5.02,0.12,8.07v7.24H247.25z"/>
	<path class="st3" d="M191.72,380.88c-0.08,1.05-0.52,4.85-4.45,4.85c-4.4,0-4.67-4.97-4.67-8.87c0-4.75,1.2-8.59,4.9-8.59
		c3.95,0,4.12,3.85,4.17,4.75h-1.47c-0.02-0.57-0.15-3.4-2.72-3.4c-2.97,0-3.35,4.12-3.35,7.22c0,3.72,0.42,7.59,3.2,7.59
		c2.45,0,2.85-2.6,2.92-3.55H191.72z"/>
	<path class="st3" d="M195.86,379.71l-1.37,5.79h-1.42l4.15-16.99h1.87l4.32,16.99h-1.55l-1.4-5.79H195.86z M200.13,378.41
		c-1.12-4.52-1.8-7.27-2.02-8.52h-0.05c-0.22,1.45-0.97,4.67-1.9,8.52H200.13z"/>
	<path class="st3" d="M205.42,368.52h1.45v15.69h6.14l-0.25,1.3h-7.34V368.52z"/>
	<path class="st3" d="M223.36,376.86c0,5.62-1.27,8.87-4.87,8.87c-3.45,0-4.77-3.1-4.77-8.82c0-5.67,1.57-8.64,4.85-8.64
		C222.01,368.27,223.36,371.14,223.36,376.86z M215.21,376.86c0,5.15,1.1,7.59,3.32,7.59c2.3,0,3.32-2.42,3.32-7.54
		c0-5.32-1.12-7.34-3.35-7.34C216.36,369.57,215.21,371.92,215.21,376.86z"/>
	<path class="st3" d="M227.62,377.46v8.04h-1.45v-16.99h4.17c2.75,0,4.15,1.62,4.15,4.3c0,2.57-1.2,3.65-2.3,4
		c1.67,0.55,2.12,2.05,2.12,4.37v0.67c0,1.45,0.02,2.72,0.25,3.65h-1.47c-0.22-0.77-0.22-2.35-0.22-3.7v-0.55
		c0-2.47-0.47-3.8-2.92-3.8H227.62z M227.62,376.21h2.42c2.17,0,2.97-1.32,2.97-3.37c0-1.8-0.82-3.07-2.82-3.07h-2.57V376.21z"/>
	<path class="st3" d="M238.81,368.52v16.99h-1.45v-16.99H238.81z"/>
	<path class="st3" d="M249.48,377.14h-5.75v7.07h6.37l-0.2,1.3h-7.59v-16.99h7.47v1.3h-6.04v6.02h5.75V377.14z"/>
	<path class="st3" d="M253.02,381.16c0.12,1.85,1.07,3.32,3.05,3.32c1.87,0,2.9-1,2.9-3.2c0-1.95-0.72-2.95-3.1-4.1
		c-2.57-1.22-3.77-2.4-3.77-4.82c0-2.2,1.4-4.07,4.07-4.07c3.07,0,3.95,2.27,4,4.2h-1.42c-0.07-0.77-0.32-2.95-2.65-2.95
		c-1.8,0-2.55,1.25-2.55,2.7c0,1.77,0.8,2.6,2.97,3.65c2.95,1.42,3.92,2.85,3.92,5.27c0,2.7-1.45,4.57-4.42,4.57
		c-3.22,0-4.3-2.15-4.45-4.57H253.02z"/>
</g>
<g>
	<path d="M26.87,382.26c0.94,0.07,4.36,0.47,4.36,4c0,3.96-4.47,4.2-7.98,4.2c-4.27,0-7.73-1.08-7.73-4.41
		c0-3.55,3.46-3.71,4.27-3.75v1.33c-0.52,0.02-3.06,0.13-3.06,2.45c0,2.67,3.71,3.01,6.5,3.01c3.35,0,6.83-0.38,6.83-2.88
		c0-2.2-2.34-2.56-3.19-2.63V382.26z"/>
	<path d="M23.59,380.17c-1.8,0-3.06,0-3.87,0.02v-1.21c0.34-0.02,0.88-0.04,2.07-0.04c-1.39-0.52-2.23-1.64-2.25-3.01h1.39
		c0.09,2,1.57,2.99,3.64,2.99h6.45v1.26H23.59z"/>
	<path d="M25.23,367.38c3.93,0,6,1.26,6,3.73c0,2.58-2,3.78-5.98,3.78c-3.89,0-5.71-1.48-5.71-3.82
		C19.54,368.68,21.43,367.38,25.23,367.38z M25.27,373.58c3.33,0,4.83-0.9,4.83-2.47s-1.55-2.43-4.85-2.43
		c-3.06,0-4.58,0.83-4.58,2.45C20.66,372.64,21.97,373.58,25.27,373.58z"/>
	<path d="M35.21,365.11H23.02c-1.55,0-2.61,0-3.3,0.02v-1.21c0.18-0.02,1.01-0.07,1.62-0.07c-1.08-0.4-1.8-1.24-1.8-2.74
		c0-2.16,1.93-3.3,5.69-3.3c3.93,0,6,1.39,6,3.62c0,1.44-0.72,2.11-1.46,2.43h5.44V365.11z M20.69,361.42
		c0,1.91,1.82,2.47,4.67,2.47c2.72,0,4.72-0.29,4.72-2.34c0-1.62-1.91-2.45-4.79-2.45C22.39,359.11,20.69,359.8,20.69,361.42z"/>
	<path d="M35.21,351.22H23.02c-1.55,0-2.61,0-3.3,0.02v-1.21c0.18-0.02,1.01-0.07,1.62-0.07c-1.08-0.4-1.8-1.24-1.8-2.74
		c0-2.16,1.93-3.3,5.69-3.3c3.93,0,6,1.39,6,3.62c0,1.44-0.72,2.11-1.46,2.43h5.44V351.22z M20.69,347.53
		c0,1.91,1.82,2.47,4.67,2.47c2.72,0,4.72-0.29,4.72-2.34c0-1.62-1.91-2.45-4.79-2.45C22.39,345.22,20.69,345.91,20.69,347.53z"/>
	<path d="M23.59,341.67c-1.8,0-3.06,0-3.87,0.02v-1.21c0.34-0.02,0.88-0.04,2.07-0.04c-1.39-0.52-2.23-1.64-2.25-3.01h1.39
		c0.09,2,1.57,2.99,3.64,2.99h6.45v1.26H23.59z"/>
	<path d="M25.23,328.88c3.93,0,6,1.26,6,3.73c0,2.58-2,3.78-5.98,3.78c-3.89,0-5.71-1.48-5.71-3.82
		C19.54,330.18,21.43,328.88,25.23,328.88z M25.27,335.08c3.33,0,4.83-0.9,4.83-2.47s-1.55-2.43-4.85-2.43
		c-3.06,0-4.58,0.83-4.58,2.45C20.66,334.14,21.97,335.08,25.27,335.08z"/>
	<path d="M15,319.87h13.22c1.01,0,2.14,0,2.81-0.02v1.21c-0.29,0.02-1.1,0.07-1.64,0.07c1.06,0.34,1.84,1.08,1.84,2.7
		c0,2.34-1.96,3.37-5.98,3.37c-3.66,0-5.71-1.42-5.71-3.69c0-1.55,0.67-2.11,1.28-2.38H15V319.87z M30.06,323.55
		c0-1.91-1.66-2.45-4.85-2.45c-3.57,0-4.52,0.56-4.52,2.32c0,1.46,1.33,2.47,4.56,2.47C28.75,325.89,30.06,325.04,30.06,323.55z"/>
	<path d="M28.01,310.22c1.35,0,2.47,0,3.01-0.02v1.19c-0.31,0.04-0.74,0.07-1.62,0.07c1.17,0.38,1.82,1.37,1.82,2.76
		c0,1.19-0.45,2.83-3.37,2.83h-8.14v-1.28h7.82c1.57,0,2.54-0.47,2.54-1.91c0-1.33-0.83-2.36-3.53-2.36h-6.83v-1.28H28.01z"/>
	<path d="M27.72,300.9c0.47,0.05,3.51,0.32,3.51,3.46c0,2.83-2.61,3.64-5.87,3.64c-3.26,0-5.84-1.06-5.84-3.8
		c0-3.12,2.99-3.3,3.46-3.3v1.3c-0.47,0.02-2.34,0.23-2.34,2c0,1.82,1.98,2.5,4.7,2.5c2.94,0,4.77-0.72,4.77-2.41
		c0-1.78-1.8-2.02-2.38-2.11V300.9z"/>
	<path d="M19.72,300.29v-1.64h-3.08v-1.24h3.08v-2.04h1.12v2.04h7.87c0.83,0,1.37-0.18,1.37-1.06c0-0.27-0.02-0.65-0.07-0.85H31
		c0.13,0.36,0.18,0.88,0.18,1.24c0,1.15-0.49,1.91-2.18,1.91h-8.16v1.64H19.72z"/>
	<path d="M17.25,293.75H15v-1.26h2.25V293.75z M19.72,293.75v-1.26h11.31v1.26H19.72z"/>
	<path d="M25.23,282.74c3.93,0,6,1.26,6,3.73c0,2.58-2,3.78-5.98,3.78c-3.89,0-5.71-1.48-5.71-3.82
		C19.54,284.04,21.43,282.74,25.23,282.74z M25.27,288.94c3.33,0,4.83-0.9,4.83-2.47s-1.55-2.43-4.85-2.43
		c-3.06,0-4.58,0.83-4.58,2.45C20.66,288,21.97,288.94,25.27,288.94z"/>
	<path d="M23.2,280.47c-2.31,0-2.99,0.02-3.48,0.02v-1.21c0.27-0.02,0.7-0.07,1.6-0.07c-0.99-0.38-1.8-1.19-1.8-2.74
		s0.85-2.9,3.46-2.9h8.05v1.28h-7.84c-1.46,0-2.49,0.52-2.49,1.91c0,1.73,1.17,2.43,3.71,2.43h6.63v1.28H23.2z"/>
	<path d="M14.93,262.62c2.27,1.53,5.15,2.85,9.46,2.85c3.96,0,6.9-1.03,9.73-2.85v1.28c-1.98,1.35-5.24,2.81-9.75,2.81
		c-4.45,0-7.55-1.55-9.44-2.81V262.62z"/>
	<path d="M19.72,262.04v-1.64h-3.08v-1.24h3.08v-2.04h1.12v2.04h7.87c0.83,0,1.37-0.18,1.37-1.06c0-0.27-0.02-0.65-0.07-0.85H31
		c0.13,0.36,0.18,0.88,0.18,1.24c0,1.15-0.49,1.91-2.18,1.91h-8.16v1.64H19.72z"/>
	<path d="M23.59,255.5c-1.8,0-3.06,0-3.87,0.02v-1.21c0.34-0.02,0.88-0.04,2.07-0.04c-1.39-0.52-2.23-1.64-2.25-3.01h1.39
		c0.09,2,1.57,2.99,3.64,2.99h6.45v1.26H23.59z"/>
	<path d="M17.25,249.64H15v-1.26h2.25V249.64z M19.72,249.64v-1.26h11.31v1.26H19.72z"/>
	<path d="M31.02,245.55H15v-1.26h16.03V245.55z"/>
	<path d="M31.02,241.46H15v-1.26h16.03V241.46z"/>
	<path d="M17.25,237.37H15v-1.26h2.25V237.37z M19.72,237.37v-1.26h11.31v1.26H19.72z"/>
	<path d="M25.23,226.35c3.93,0,6,1.26,6,3.73c0,2.58-2,3.78-5.98,3.78c-3.89,0-5.71-1.48-5.71-3.82
		C19.54,227.66,21.43,226.35,25.23,226.35z M25.27,232.56c3.33,0,4.83-0.9,4.83-2.47s-1.55-2.43-4.85-2.43
		c-3.06,0-4.58,0.83-4.58,2.45C20.66,231.61,21.97,232.56,25.27,232.56z"/>
	<path d="M23.2,224.08c-2.31,0-2.99,0.02-3.48,0.02v-1.21c0.27-0.02,0.7-0.07,1.6-0.07c-0.99-0.38-1.8-1.19-1.8-2.74
		s0.85-2.9,3.46-2.9h8.05v1.28h-7.84c-1.46,0-2.49,0.52-2.49,1.91c0,1.73,1.17,2.43,3.71,2.43h6.63v1.28H23.2z"/>
	<path d="M27.72,203.5c0.47,0.05,3.51,0.32,3.51,3.46c0,2.83-2.61,3.64-5.87,3.64c-3.26,0-5.84-1.06-5.84-3.8
		c0-3.12,2.99-3.3,3.46-3.3v1.3c-0.47,0.02-2.34,0.23-2.34,2c0,1.82,1.98,2.5,4.7,2.5c2.94,0,4.77-0.72,4.77-2.41
		c0-1.78-1.8-2.02-2.38-2.11V203.5z"/>
	<path d="M29.2,195.18c0.76,0,1.53-0.04,1.82-0.09v1.17c-0.27,0.07-0.9,0.11-1.37,0.11c0.99,0.4,1.57,1.3,1.57,2.72
		c0,2.18-1.69,2.94-3.24,2.94c-1.98,0-3.57-1.33-3.57-4.34c0-0.58,0-0.92,0.02-1.28h-1.6c-0.97,0-2.23,0.2-2.23,1.89
		c0,1.89,1.37,1.98,2.13,2.04v1.24c-1.6-0.04-3.21-0.81-3.21-3.3c0-2.11,1.03-3.1,3.1-3.1H29.2z M25.52,196.4
		c-0.04,0.29-0.07,0.63-0.07,1.24c0,2.2,1.08,3.12,2.45,3.12c1.19,0,2.2-0.63,2.2-1.93c0-1.78-1.21-2.43-3.87-2.43H25.52z"/>
	<path d="M31.02,192.35H15v-1.26h16.03V192.35z"/>
	<path d="M25.23,181.34c3.93,0,6,1.26,6,3.73c0,2.58-2,3.78-5.98,3.78c-3.89,0-5.71-1.48-5.71-3.82
		C19.54,182.64,21.43,181.34,25.23,181.34z M25.27,187.54c3.33,0,4.83-0.9,4.83-2.47s-1.55-2.43-4.85-2.43
		c-3.06,0-4.58,0.83-4.58,2.45C20.66,186.6,21.97,187.54,25.27,187.54z"/>
	<path d="M23.59,179.07c-1.8,0-3.06,0-3.87,0.02v-1.21c0.34-0.02,0.88-0.04,2.07-0.04c-1.39-0.52-2.23-1.64-2.25-3.01h1.39
		c0.09,2,1.57,2.99,3.64,2.99h6.45v1.26H23.59z"/>
	<path d="M17.25,173.2H15v-1.26h2.25V173.2z M19.72,173.2v-1.26h11.31v1.26H19.72z"/>
	<path d="M25.54,168.42c2.5,0,4.56-0.45,4.56-2.38c0-1.96-1.89-2.2-2.23-2.27v-1.26c0.27,0.02,3.35,0.36,3.35,3.53
		c0,3.21-3.03,3.66-5.84,3.66c-3.57,0-5.84-1.17-5.84-3.75c0-2.85,2.43-3.53,5.21-3.53c0.16,0,0.47,0,0.79,0.02V168.42z
		 M24.48,163.7c-2.27,0-3.84,0.52-3.84,2.27c0,2.27,3.08,2.38,3.84,2.43V163.7z"/>
	<path d="M27.83,159.85c1.37-0.11,2.31-0.83,2.31-2.23c0-1.37-0.88-2.02-2.02-2.02c-1.3,0-1.89,0.67-2.5,2.22
		c-0.85,2.2-1.66,2.9-3.21,2.9c-1.51,0-2.9-0.92-2.9-3.08c0-2.36,1.6-3.08,3.12-3.1v1.26c-0.61,0.04-2.02,0.2-2.02,1.89
		c0,1.21,0.74,1.75,1.75,1.75c0.97,0,1.46-0.4,2.09-2.04c0.83-2.09,1.6-3.1,3.57-3.1c2,0,3.19,1.26,3.19,3.42
		c0,2.18-1.33,3.33-3.39,3.39V159.85z"/>
	<path d="M35.21,147.85H23.02c-1.55,0-2.61,0-3.3,0.02v-1.21c0.18-0.02,1.01-0.07,1.62-0.07c-1.08-0.4-1.8-1.24-1.8-2.74
		c0-2.16,1.93-3.3,5.69-3.3c3.93,0,6,1.39,6,3.62c0,1.44-0.72,2.11-1.46,2.43h5.44V147.85z M20.69,144.17
		c0,1.91,1.82,2.47,4.67,2.47c2.72,0,4.72-0.29,4.72-2.34c0-1.62-1.91-2.45-4.79-2.45C22.39,141.85,20.69,142.55,20.69,144.17z"/>
	<path d="M25.54,137.6c2.5,0,4.56-0.45,4.56-2.38c0-1.96-1.89-2.2-2.23-2.27v-1.26c0.27,0.02,3.35,0.36,3.35,3.53
		c0,3.21-3.03,3.66-5.84,3.66c-3.57,0-5.84-1.17-5.84-3.75c0-2.85,2.43-3.53,5.21-3.53c0.16,0,0.47,0,0.79,0.02V137.6z
		 M24.48,132.88c-2.27,0-3.84,0.52-3.84,2.27c0,2.27,3.08,2.38,3.84,2.43V132.88z"/>
	<path d="M23.59,129.42c-1.8,0-3.06,0-3.87,0.02v-1.21c0.34-0.02,0.88-0.04,2.07-0.04c-1.39-0.52-2.23-1.64-2.25-3.01h1.39
		c0.09,2,1.57,2.99,3.64,2.99h6.45v1.26H23.59z"/>
	<path d="M19.72,119c5.15-1.37,8.65-2.36,9.8-2.52v-0.02c-1.19-0.2-5.28-1.33-9.8-2.52v-1.33l11.89,3.33
		c3.24,0.9,3.78,1.62,3.78,3.24c0,0.22-0.02,0.54-0.07,0.74h-1.17c0.04-0.16,0.07-0.47,0.07-0.72c0-1.26-0.92-1.6-2.92-2.09
		l-11.58,3.28V119z"/>
	<path d="M25.54,110.25c2.5,0,4.56-0.45,4.56-2.38c0-1.96-1.89-2.2-2.23-2.27v-1.26c0.27,0.02,3.35,0.36,3.35,3.53
		c0,3.21-3.03,3.66-5.84,3.66c-3.57,0-5.84-1.17-5.84-3.75c0-2.85,2.43-3.53,5.21-3.53c0.16,0,0.47,0,0.79,0.02V110.25z
		 M24.48,105.53c-2.27,0-3.84,0.52-3.84,2.27c0,2.27,3.08,2.38,3.84,2.43V105.53z"/>
	<path d="M29.2,95.82c0.76,0,1.53-0.04,1.82-0.09v1.17c-0.27,0.07-0.9,0.11-1.37,0.11c0.99,0.4,1.57,1.3,1.57,2.72
		c0,2.18-1.69,2.94-3.24,2.94c-1.98,0-3.57-1.33-3.57-4.34c0-0.58,0-0.92,0.02-1.28h-1.6c-0.97,0-2.23,0.2-2.23,1.89
		c0,1.89,1.37,1.98,2.13,2.04v1.24c-1.6-0.04-3.21-0.81-3.21-3.3c0-2.11,1.03-3.1,3.1-3.1H29.2z M25.52,97.04
		c-0.04,0.29-0.07,0.63-0.07,1.24c0,2.2,1.08,3.12,2.45,3.12c1.19,0,2.2-0.63,2.2-1.93c0-1.78-1.21-2.43-3.87-2.43H25.52z"/>
	<path d="M23.59,92.99c-1.8,0-3.06,0-3.87,0.02V91.8c0.34-0.02,0.88-0.04,2.07-0.04c-1.39-0.52-2.23-1.64-2.25-3.01h1.39
		c0.09,2,1.57,2.99,3.64,2.99h6.45v1.26H23.59z"/>
	<path d="M34.13,87.91c-2.27-1.53-5.15-2.85-9.46-2.85c-3.93,0-6.9,1.03-9.73,2.85v-1.28c1.98-1.37,5.24-2.83,9.75-2.83
		c4.45,0,7.55,1.55,9.44,2.83V87.91z"/>
</g>
<g>
	<g>
		<path d="M416.86,143.56h-6.29c-0.09,1.35-0.3,3.57-0.39,4.62c0.57-0.6,1.47-1.05,2.91-1.05c3.39,0,4.92,2.52,4.92,6.53
			c0,3.84-1.17,7.28-5.99,7.28c-3.87,0-5.51-2.19-5.66-5.33h3.6c0.15,1.41,0.66,2.4,2.16,2.4c1.86,0,2.25-1.77,2.25-4.17
			c0-2.22-0.39-3.75-2.25-3.75c-1.44,0-1.92,0.99-2.25,2.1l-3.33-0.45c0.33-2.52,0.87-9.17,0.99-11.36h9.77L416.86,143.56z"/>
		<path d="M428.6,145.03c-0.12-0.99-0.45-2.04-1.95-2.04c-2.04,0-2.34,2.91-2.37,5.84c0.63-0.87,1.71-1.62,3.51-1.62
			c3,0,4.64,2.25,4.64,6.29c0,4.38-1.47,7.43-5.84,7.43c-4.97,0-5.93-3.93-5.93-9.86c0-7.13,1.38-10.94,6.14-10.94
			c4.14,0,5.24,2.61,5.27,4.88H428.6z M428.78,153.96c0-2.85-0.69-3.78-2.19-3.78c-1.62,0-2.31,1.08-2.31,3.21
			c0,3,0.66,4.67,2.25,4.67C428.12,158.07,428.78,156.66,428.78,153.96z"/>
		<path d="M443.2,146.35c0,3.72-1.47,5.72-4.17,5.75c-2.58,0-4.14-1.71-4.14-5.69c0-3.78,1.65-5.69,4.17-5.69
			C441.55,140.72,443.2,142.39,443.2,146.35z M437.56,146.38c0,2.37,0.45,3.42,1.5,3.42c1.02,0,1.5-1.11,1.5-3.45
			c0-2.37-0.42-3.33-1.5-3.33C438.07,143.02,437.56,143.95,437.56,146.38z M438.25,160.67l10.55-19.72h2.31l-10.61,19.72H438.25z
			 M454.52,155.19c0,3.72-1.44,5.75-4.17,5.78c-2.58,0-4.11-1.71-4.11-5.69c0-3.78,1.62-5.69,4.14-5.69S454.52,151.26,454.52,155.19
			z M448.89,155.25c0,2.34,0.45,3.42,1.5,3.42s1.53-1.11,1.53-3.45c0-2.37-0.42-3.33-1.53-3.33
			C449.4,151.89,448.89,152.82,448.89,155.25z"/>
		<path d="M380.36,176.26h8.99v1.56h-7.25v7.37h6.8v1.53h-6.8v9.92h-1.74V176.26z"/>
		<path d="M403.16,186.26c0,6.74-1.53,10.64-5.84,10.64c-4.14,0-5.72-3.72-5.72-10.58c0-6.8,1.89-10.37,5.81-10.37
			C401.54,175.96,403.16,179.4,403.16,186.26z M393.39,186.26c0,6.17,1.32,9.11,3.99,9.11c2.76,0,3.99-2.91,3.99-9.05
			c0-6.38-1.35-8.81-4.02-8.81C394.77,177.51,393.39,180.33,393.39,186.26z"/>
		<path d="M417.91,186.26c0,6.74-1.53,10.64-5.84,10.64c-4.14,0-5.72-3.72-5.72-10.58c0-6.8,1.89-10.37,5.81-10.37
			C416.29,175.96,417.91,179.4,417.91,186.26z M408.14,186.26c0,6.17,1.32,9.11,3.99,9.11c2.76,0,3.99-2.91,3.99-9.05
			c0-6.38-1.35-8.81-4.02-8.81C409.51,177.51,408.14,180.33,408.14,186.26z"/>
		<path d="M421.89,176.26h4.26c4.5,0,6.65,3.24,6.65,9.62c0,6.92-1.92,10.76-6.98,10.76h-3.93V176.26z M423.63,195.11h2.07
			c4.05,0,5.3-3.24,5.3-9.14c0-5.69-1.59-8.18-5.27-8.18h-2.1V195.11z"/>
		<path d="M453.47,196.63h-1.41c-0.06-0.54-0.12-1.23-0.12-2.37c-0.57,1.35-1.44,2.64-4.11,2.64c-4.46,0-5.48-4.82-5.48-10.49
			c0-6.86,2.04-10.46,6.08-10.46c4.65,0,4.97,4.2,5.04,5.42h-1.74c-0.06-0.69-0.21-3.87-3.33-3.87c-3.09,0-4.23,3.48-4.23,8.87
			c0,5.21,0.84,8.99,3.9,8.99s3.69-2.58,3.69-7.31v-0.96h-3.84v-1.53h5.54V196.63z"/>
		<path d="M459.41,189.68l-1.65,6.95h-1.71l4.97-20.38h2.25l5.18,20.38h-1.86l-1.68-6.95H459.41z M464.53,188.12
			c-1.35-5.42-2.16-8.72-2.43-10.22h-0.06c-0.27,1.74-1.17,5.6-2.28,10.22H464.53z"/>
		<path d="M471.48,176.26h4.95c3.15,0,5.24,2.01,5.24,5.51c0,3.54-1.89,5.87-5.57,5.87h-2.88v8.99h-1.74V176.26z M473.22,186.11h2.7
			c2.58,0,3.99-1.41,3.99-4.35c0-2.34-1.23-4.02-3.72-4.02h-2.97V186.11z"/>
	</g>
</g>
</svg>
